<svg width="25" height="20" viewBox="0 0 25 20" fill="none" xmlns="http://www.w3.org/2000/svg">
<g clip-path="url(#clip0_9_13)">
<path d="M2.5 5.83333L8.55547 9.87033C9.98106 10.8207 10.6939 11.2959 11.4642 11.4806C12.1451 11.6437 12.8549 11.6437 13.5358 11.4806C14.3061 11.2959 15.019 10.8207 16.4446 9.87033L22.5 5.83333M6.05556 18.0556H18.9444C20.189 18.0556 20.8113 18.0556 21.2867 17.8133C21.7048 17.6003 22.0448 17.2603 22.2578 16.8422C22.5 16.3669 22.5 15.7446 22.5 14.5V6.05556C22.5 4.811 22.5 4.18871 22.2578 3.71336C22.0448 3.29521 21.7048 2.95526 21.2867 2.74221C20.8113 2.5 20.189 2.5 18.9444 2.5H6.05556C4.811 2.5 4.18871 2.5 3.71336 2.74221C3.29521 2.95526 2.95526 3.29521 2.74221 3.71336C2.5 4.18871 2.5 4.81099 2.5 6.05556V14.5C2.5 15.7446 2.5 16.3669 2.74221 16.8422C2.95526 17.2603 3.29521 17.6003 3.71336 17.8133C4.18871 18.0556 4.81099 18.0556 6.05556 18.0556Z" stroke="#F4B67D" stroke-width="2.22222" stroke-linecap="round" stroke-linejoin="round"/>
</g>
<defs>
<clipPath id="clip0_9_13">
<rect width="24" height="19" fill="white" transform="translate(0.5 0.5)"/>
</clipPath>
</defs>
</svg>
