<svg width="25" height="25" viewBox="0 0 25 25" fill="none" xmlns="http://www.w3.org/2000/svg">
<path d="M14.1316 6.71053C15.1598 6.91113 16.1046 7.41396 16.8454 8.15467C17.5861 8.89538 18.0889 9.84027 18.2895 10.8684M14.1316 2.5C16.2677 2.73731 18.2596 3.69386 19.7803 5.21264C21.3009 6.73141 22.2601 8.72212 22.5 10.8579M18.8158 22.5C9.80483 22.5 2.5 15.1952 2.5 6.18421C2.5 5.77766 2.51487 5.37459 2.54409 4.97551C2.57763 4.51749 2.5944 4.28849 2.71442 4.08003C2.81383 3.90738 2.99 3.74364 3.16945 3.65711C3.38612 3.55263 3.63882 3.55263 4.14422 3.55263H7.10981C7.53482 3.55263 7.74733 3.55263 7.92949 3.62258C8.09041 3.68437 8.2337 3.78473 8.34676 3.91484C8.47475 4.06214 8.54737 4.26185 8.69262 4.66127L9.92011 8.03689C10.089 8.50161 10.1736 8.73397 10.1593 8.95442C10.1466 9.14881 10.0802 9.33587 9.96758 9.4948C9.83985 9.67503 9.62784 9.80224 9.20382 10.0567L7.76316 10.9211C9.02832 13.7094 11.2896 15.9736 14.0789 17.2368L14.9434 15.7962C15.1978 15.3721 15.3249 15.1601 15.5052 15.0324C15.6641 14.9198 15.8512 14.8534 16.0456 14.8407C16.266 14.8264 16.4984 14.9109 16.9632 15.0799L20.3387 16.3074C20.7381 16.4526 20.9379 16.5253 21.0852 16.6533C21.2153 16.7663 21.3157 16.9096 21.3774 17.0705C21.4474 17.2526 21.4474 17.4652 21.4474 17.8902V20.8558C21.4474 21.3612 21.4474 21.6139 21.3428 21.8305C21.2563 22.01 21.0926 22.1862 20.92 22.2856C20.7115 22.4056 20.4825 22.4223 20.0245 22.4559C19.6254 22.4852 19.2223 22.5 18.8158 22.5Z" stroke="#F4B67D" stroke-width="2.10526" stroke-linecap="round" stroke-linejoin="round"/>
</svg>
