<svg width="907" height="215" viewBox="0 0 907 215" fill="none" xmlns="http://www.w3.org/2000/svg">
<path fill-rule="evenodd" clip-rule="evenodd" d="M349.438 215V83.9844L231.86 0L174.75 41.9922L117.641 0L0.0627441 83.9844V215H67.2502V184.766H26.9377V97.4219L114.281 33.5937L150.338 59.9425L117.641 83.9844V215H231.86V83.9844L199.78 60.3962L231.86 36.9531L322.563 100.781V188.125H278.891V215H349.438ZM175.369 78.2347L201.625 97.4219V188.125H144.516V100.781L175.369 78.2347Z" fill="#DB571B"/>
<path d="M520.766 215L462.933 142.511L446.763 160.736V215H403.188V17.9509H446.763V101.539L518.841 17.9509H574.064L491.024 111.131L577.875 215L520.766 215Z" fill="#DB571B"/>
<path d="M681.633 68.515H722.605V211.574H681.633V197.323C670.122 209.108 655.688 215 638.331 215C618.69 215 602.247 207.829 589 193.486C575.845 179.144 569.268 161.33 569.268 140.045C569.268 118.759 575.845 100.945 589 86.6029C602.247 72.2605 618.69 65.0892 638.331 65.0892C655.688 65.0892 670.122 70.9815 681.633 82.7661V68.515ZM646.553 175.398C656.602 175.398 664.961 172.018 671.629 165.258C678.298 158.498 681.633 150.093 681.633 140.045C681.633 129.996 678.298 121.591 671.629 114.831C664.961 108.071 656.602 104.691 646.553 104.691C636.595 104.691 628.282 108.071 621.613 114.831C615.036 121.591 611.747 129.996 611.747 140.045C611.747 150.093 615.036 158.498 621.613 165.258C628.282 172.018 636.595 175.398 646.553 175.398Z" fill="#DB571B"/>
<path d="M834.695 66.1855H840.861V108.254H834.695C822.362 108.254 812.816 111.542 806.056 118.12C799.387 124.697 796.053 133.604 796.053 144.841V211.574H755.081V68.515H796.053V84.6845C806.65 72.3518 819.53 66.1855 834.695 66.1855Z" fill="#DB571B"/>
<path d="M881.285 50.153C874.16 50.153 868.176 47.7778 863.334 43.0274C858.493 38.1857 856.072 32.1564 856.072 24.9395C856.072 17.8139 858.493 11.8759 863.334 7.12556C868.176 2.37519 874.16 0 881.285 0C888.593 0 894.668 2.37519 899.51 7.12556C904.443 11.8759 906.91 17.8139 906.91 24.9395C906.91 32.1564 904.443 38.1857 899.51 43.0274C894.668 47.7778 888.593 50.153 881.285 50.153ZM860.868 211.574V68.515H901.84V211.574H860.868Z" fill="#DB571B"/>
</svg>
