<svg width="16" height="33" viewBox="0 0 16 33" fill="none" xmlns="http://www.w3.org/2000/svg">
<g clip-path="url(#clip0_9_21)">
<path d="M9.69782 7.85764C9.69782 8.19604 9.69782 9.29899 9.69782 10.8659H15.0853L14.5012 15.6685H9.69782C9.69782 23.075 9.69782 33 9.69782 33H3.32216C3.32216 33 3.32216 23.2063 3.32216 15.6685H0V10.8659H3.32216C3.32216 8.96137 3.32216 7.60707 3.32216 7.22999C3.32216 5.4334 3.1868 4.58095 3.95019 3.18875C4.71397 1.79661 6.86834 -0.0435165 10.5945 0.00078495C14.3216 0.0467009 15.8926 0.405246 15.8926 0.405246L15.0853 5.52361C15.0853 5.52361 12.7053 4.89519 11.5372 5.11915C10.3705 5.34318 9.69782 6.06182 9.69782 7.85764Z" fill="#F4B67D"/>
</g>
<defs>
<clipPath id="clip0_9_21">
<rect width="16" height="33" fill="white"/>
</clipPath>
</defs>
</svg>
