<svg width="33" height="33" viewBox="0 0 33 33" fill="none" xmlns="http://www.w3.org/2000/svg">
<g clip-path="url(#clip0_9_17)">
<path fill-rule="evenodd" clip-rule="evenodd" d="M16.5 25.5C21.4705 25.5 25.5 21.4705 25.5 16.5C25.5 11.5294 21.4705 7.5 16.5 7.5C11.5294 7.5 7.5 11.5294 7.5 16.5C7.5 21.4705 11.5294 25.5 16.5 25.5ZM16.5 22.5C19.8136 22.5 22.5 19.8136 22.5 16.5C22.5 13.1863 19.8136 10.5 16.5 10.5C13.1863 10.5 10.5 13.1863 10.5 16.5C10.5 19.8136 13.1863 22.5 16.5 22.5Z" fill="#F4B67D"/>
<path d="M25.5 6C24.6715 6 24 6.67158 24 7.5C24 8.32842 24.6715 9 25.5 9C26.3284 9 27 8.32842 27 7.5C27 6.67158 26.3284 6 25.5 6Z" fill="#F4B67D"/>
<path fill-rule="evenodd" clip-rule="evenodd" d="M0.98094 4.91409C0 6.8393 0 9.35954 0 14.4V18.6C0 23.6404 0 26.1607 0.98094 28.0858C1.8438 29.7793 3.22062 31.1562 4.91409 32.019C6.8393 33 9.35954 33 14.4 33H18.6C23.6404 33 26.1607 33 28.0858 32.019C29.7793 31.1562 31.1562 29.7793 32.019 28.0858C33 26.1607 33 23.6404 33 18.6V14.4C33 9.35954 33 6.8393 32.019 4.91409C31.1562 3.22062 29.7793 1.8438 28.0858 0.98094C26.1607 0 23.6404 0 18.6 0H14.4C9.35954 0 6.8393 0 4.91409 0.98094C3.22062 1.8438 1.8438 3.22062 0.98094 4.91409ZM18.6 3H14.4C11.8303 3 10.0834 3.00234 8.73312 3.11265C7.41786 3.22011 6.74526 3.41489 6.27606 3.65396C5.14709 4.22921 4.22921 5.14709 3.65396 6.27606C3.41489 6.74526 3.22011 7.41786 3.11265 8.73312C3.00234 10.0834 3 11.8303 3 14.4V18.6C3 21.1698 3.00234 22.9165 3.11265 24.2668C3.22011 25.5822 3.41489 26.2548 3.65396 26.724C4.22921 27.8529 5.14709 28.7707 6.27606 29.346C6.74526 29.5851 7.41786 29.78 8.73312 29.8874C10.0834 29.9976 11.8303 30 14.4 30H18.6C21.1698 30 22.9165 29.9976 24.2668 29.8874C25.5822 29.78 26.2548 29.5851 26.724 29.346C27.8529 28.7707 28.7707 27.8529 29.346 26.724C29.5851 26.2548 29.78 25.5822 29.8874 24.2668C29.9976 22.9165 30 21.1698 30 18.6V14.4C30 11.8303 29.9976 10.0834 29.8874 8.73312C29.78 7.41786 29.5851 6.74526 29.346 6.27606C28.7707 5.14709 27.8529 4.22921 26.724 3.65396C26.2548 3.41489 25.5822 3.22011 24.2668 3.11265C22.9165 3.00234 21.1698 3 18.6 3Z" fill="#F4B67D"/>
</g>
<defs>
<clipPath id="clip0_9_17">
<rect width="33" height="33" fill="white"/>
</clipPath>
</defs>
</svg>
