<svg width="29" height="33" viewBox="0 0 29 33" fill="none" xmlns="http://www.w3.org/2000/svg">
<g clip-path="url(#clip0_9_27)">
<path d="M15.0614 0.0275129C16.8629 1.04308e-07 18.6513 0.0143067 20.4385 0C20.4979 2.23514 21.4048 4.24688 22.8475 5.73698L22.8453 5.73478C24.3982 7.13353 26.4187 8.04035 28.6461 8.19442L28.6769 8.19663V13.7388C26.5728 13.686 24.594 13.2007 22.8101 12.3665L22.9004 12.4039C22.0376 11.989 21.3079 11.5631 20.6146 11.0877L20.6718 11.1251C20.6586 15.1409 20.685 19.1566 20.6443 23.1581C20.5309 25.1974 19.853 27.0572 18.7657 28.6101L18.7877 28.5759C16.9697 31.1798 14.0247 32.8888 10.6759 32.9901H10.6604C10.5251 32.9967 10.3655 33 10.2048 33C8.30094 33 6.52141 32.4696 5.00491 31.5484L5.04893 31.5737C2.28884 29.9131 0.384951 27.0715 0.0327862 23.7667L0.0283842 23.7216C0.000871401 23.0337 -0.0123349 22.3459 0.015178 21.6724C0.55443 16.4131 4.96089 12.3445 10.3171 12.3445C10.9191 12.3445 11.5089 12.3962 12.0823 12.4941L12.0207 12.4853C12.0482 14.5202 11.9657 16.5561 11.9657 18.591C11.5001 18.4226 10.9631 18.3247 10.4029 18.3247C8.34717 18.3247 6.59845 19.6387 5.95135 21.4732L5.94144 21.5062C5.79508 21.9762 5.71034 22.5165 5.71034 23.0756C5.71034 23.3023 5.72464 23.5268 5.75105 23.7469L5.74885 23.7205C6.11422 25.9721 8.04452 27.6713 10.3721 27.6713C10.4392 27.6713 10.5053 27.6702 10.5713 27.6669H10.5614C12.1715 27.6185 13.5691 26.7524 14.3593 25.4725L14.3703 25.4527C14.6641 25.0433 14.8655 24.5481 14.9326 24.0099L14.9337 23.9945C15.0713 21.5326 15.0163 19.0851 15.0295 16.6233C15.0427 11.0811 15.0163 5.55209 15.057 0.0242114L15.0614 0.0275129Z" fill="#F4B67D"/>
</g>
<defs>
<clipPath id="clip0_9_27">
<rect width="29" height="33" fill="white"/>
</clipPath>
</defs>
</svg>
